<?xml version="1.0" encoding="utf-8"?>
<!-- Generator: Adobe Illustrator 17.1.0, SVG Export Plug-In . SVG Version: 6.00 Build 0)  -->
<!DOCTYPE svg PUBLIC "-//W3C//DTD SVG 1.1//EN" "http://www.w3.org/Graphics/SVG/1.1/DTD/svg11.dtd">
<svg version="1.1" id="Layer_1" xmlns="http://www.w3.org/2000/svg" xmlns:xlink="http://www.w3.org/1999/xlink" x="0px" y="0px"
	 viewBox="0 0 24 24" enable-background="new 0 0 24 24" xml:space="preserve">
<g>
	<g>
		<path fill="#FFFFFF" d="M13.659,12.174c0-0.866-0.708-1.571-1.578-1.571c-0.87,0-1.578,0.705-1.578,1.571
			c0,0.867,0.708,1.571,1.578,1.571C12.952,13.745,13.659,13.041,13.659,12.174z M16.003,3.996H7.997
			c-2.206,0-4.001,1.788-4.001,3.985v1.11h5.887c0.621-0.441,1.38-0.701,2.199-0.701s1.578,0.26,2.199,0.701h5.723V7.98
			C20.004,5.783,18.209,3.996,16.003,3.996z M17.623,7.785c0,0.243-0.2,0.443-0.445,0.443h-1.373c-0.245,0-0.445-0.199-0.445-0.443
			V6.417c0-0.243,0.2-0.443,0.445-0.443h1.373c0.245,0,0.445,0.199,0.445,0.443V7.785z M15.882,12.174
			c0,2.087-1.705,3.785-3.8,3.785c-2.095,0-3.8-1.698-3.8-3.785c0-0.575,0.13-1.12,0.361-1.608H3.996v5.454
			c0,2.197,1.795,3.984,4.001,3.984h8.006c2.206,0,4.001-1.787,4.001-3.984v-5.454h-4.483
			C15.752,11.054,15.882,11.599,15.882,12.174z"/>
	</g>
</g>
<g>
</g>
<g>
</g>
<g>
</g>
<g>
</g>
<g>
</g>
<g>
</g>
<g>
</g>
<g>
</g>
<g>
</g>
<g>
</g>
<g>
</g>
<g>
</g>
<g>
</g>
<g>
</g>
<g>
</g>
</svg>
