<?xml version="1.0" encoding="utf-8"?>
<!-- Generator: Adobe Illustrator 17.1.0, SVG Export Plug-In . SVG Version: 6.00 Build 0)  -->
<!DOCTYPE svg PUBLIC "-//W3C//DTD SVG 1.1//EN" "http://www.w3.org/Graphics/SVG/1.1/DTD/svg11.dtd">
<svg version="1.1" id="Layer_1" xmlns="http://www.w3.org/2000/svg" xmlns:xlink="http://www.w3.org/1999/xlink" x="0px" y="0px"
	 viewBox="0 0 24 24" enable-background="new 0 0 24 24" xml:space="preserve">
<path fill="#FFFFFF" d="M12.365,4.015c-4.252,0-6.396,3.125-6.396,5.73c0,1.578,0.582,2.981,1.832,3.504
	c0.206,0.082,0.389,0.004,0.449-0.229c0.042-0.161,0.139-0.567,0.183-0.737c0.06-0.23,0.038-0.312-0.129-0.511
	c-0.36-0.436-0.591-0.999-0.591-1.798c0-2.319,1.692-4.393,4.406-4.393c2.4,0,3.723,1.504,3.723,3.516
	c0,2.644-1.141,4.874-2.835,4.874c-0.938,0-1.64-0.792-1.414-1.765c0.269-1.16,0.789-2.414,0.789-3.254
	c0-0.751-0.394-1.378-1.205-1.378c-0.957,0-1.725,1.016-1.725,2.375c0,0.866,0.285,1.451,0.285,1.451s-0.979,4.255-1.151,4.999
	c-0.343,1.484-0.051,3.302-0.026,3.485c0.014,0.109,0.151,0.136,0.212,0.053c0.089-0.118,1.228-1.561,1.616-3.002
	c0.11-0.407,0.63-2.522,0.63-2.522c0.311,0.608,1.22,1.144,2.186,1.144c2.876,0,4.829-2.687,4.829-6.287
	C18.031,6.549,15.782,4.015,12.365,4.015z"/>
<g>
</g>
<g>
</g>
<g>
</g>
<g>
</g>
<g>
</g>
<g>
</g>
<g>
</g>
<g>
</g>
<g>
</g>
<g>
</g>
<g>
</g>
<g>
</g>
<g>
</g>
<g>
</g>
<g>
</g>
</svg>
