<?xml version="1.0" encoding="utf-8"?>
<!-- Generator: Adobe Illustrator 17.1.0, SVG Export Plug-In . SVG Version: 6.00 Build 0)  -->
<!DOCTYPE svg PUBLIC "-//W3C//DTD SVG 1.1//EN" "http://www.w3.org/Graphics/SVG/1.1/DTD/svg11.dtd">
<svg version="1.1" id="Layer_1" xmlns="http://www.w3.org/2000/svg" xmlns:xlink="http://www.w3.org/1999/xlink" x="0px" y="0px"
	 viewBox="0 0 24 24" enable-background="new 0 0 24 24" xml:space="preserve">
<path fill="#FFFFFF" d="M19.951,6.683c-0.268,0.16-1.072,0.48-1.821,0.56c0.48-0.281,1.192-1.2,1.368-1.931
	c-0.462,0.319-1.523,0.785-2.047,0.785c0,0,0,0.001,0.001,0.002C16.854,5.422,16.013,5,15.08,5c-1.811,0-3.281,1.591-3.281,3.554
	c0,0.272,0.03,0.538,0.084,0.792h-0.001c-2.458-0.068-5.331-1.403-6.95-3.687c-0.994,1.866-0.134,3.94,0.995,4.696
	c-0.385,0.033-1.098-0.047-1.433-0.4c-0.023,1.238,0.527,2.878,2.53,3.473c-0.386,0.226-1.068,0.162-1.366,0.112
	c0.105,1.047,1.456,2.414,2.932,2.414c-0.526,0.659-2.322,1.857-4.543,1.475C5.558,18.424,7.318,19,9.18,19
	c5.293,0,9.403-4.648,9.182-10.382c0-0.006-0.002-0.014-0.002-0.018c0-0.016,0.002-0.032,0.002-0.046
	c0-0.018-0.002-0.035-0.002-0.054C18.842,8.145,19.488,7.515,19.951,6.683z"/>
<g>
</g>
<g>
</g>
<g>
</g>
<g>
</g>
<g>
</g>
<g>
</g>
<g>
</g>
<g>
</g>
<g>
</g>
<g>
</g>
<g>
</g>
<g>
</g>
<g>
</g>
<g>
</g>
<g>
</g>
</svg>
