<?xml version="1.0" encoding="utf-8"?>
<!-- Generator: Adobe Illustrator 17.1.0, SVG Export Plug-In . SVG Version: 6.00 Build 0)  -->
<!DOCTYPE svg PUBLIC "-//W3C//DTD SVG 1.1//EN" "http://www.w3.org/Graphics/SVG/1.1/DTD/svg11.dtd">
<svg version="1.1" id="Layer_1" xmlns="http://www.w3.org/2000/svg" xmlns:xlink="http://www.w3.org/1999/xlink" x="0px" y="0px"
	 viewBox="0 0 200 74" enable-background="new 0 0 200 74" xml:space="preserve">
<path fill="#FFFFFF" d="M161.433,42.409c-1.023,0-1.84,0.777-1.84,1.788c0,1,0.817,1.797,1.832,1.797
	c1.014,0,1.805-0.797,1.805-1.797C163.229,43.186,162.438,42.409,161.433,42.409 M161.407,43.285c-0.292,0-0.523,0.034-0.677,0.051
	v1.788h0.409v-0.704h0.188c0.228,0,0.343,0.082,0.374,0.274c0.06,0.216,0.083,0.372,0.14,0.43h0.434
	c-0.04-0.059-0.08-0.165-0.132-0.43c-0.057-0.24-0.147-0.38-0.319-0.439V44.23c0.206-0.066,0.37-0.207,0.37-0.421
	c0-0.175-0.075-0.315-0.182-0.39C161.889,43.336,161.742,43.285,161.407,43.285 M10.701,54.671c-3.353,0-6.223,0.232-7.963,0.645
	C0.694,55.797,0,56.443,0,58.107v12.636c0,0.597,0.091,1.009,0.172,1.217c0.702,1.405,4.047,2.027,10.479,2.027
	c8.045,0,10.963-0.772,10.963-2.705V57.907c0-1.572-0.695-2.193-2.953-2.641C16.782,54.903,13.874,54.671,10.701,54.671
	 M194.825,54.894h-7.028l-4.048,7.005l-3.997-7.005h-9.662l7.88,11.799v6.955h9.09v-6.955L194.825,54.894z M159.609,54.894H141.92
	v18.754h17.654v-2.366h-8.565v-6.029h6.647l-0.042-2.193h-6.656v-5.804h8.65V54.894z M119.505,54.894h-9.034v18.754h17.993V71.17
	h-8.96V54.894z M96.764,54.894H88.94l-6.956,7.628v-7.628H72.94v18.754h9.043v-8.256l4.692,8.256h9.654l-6.645-11.011L96.764,54.894
	z M51.663,54.894H41.103l-6.696,18.754h6.474l1.306-4.679h5.69l1.522,4.679h9.532L51.663,54.894z M198.209,54.903
	c-1.03,0-1.839,0.779-1.839,1.787c0,0.996,0.809,1.798,1.824,1.798c1.014,0,1.814-0.802,1.814-1.798
	C200.008,55.682,199.208,54.903,198.209,54.903 M198.194,55.764c-0.295,0-0.525,0.034-0.687,0.059v1.787h0.407V56.9h0.195
	c0.23,0,0.337,0.088,0.37,0.272c0.057,0.225,0.089,0.372,0.139,0.437h0.435c-0.042-0.066-0.075-0.156-0.14-0.437
	c-0.05-0.242-0.14-0.373-0.312-0.432v-0.023c0.206-0.058,0.377-0.209,0.377-0.423c0-0.174-0.08-0.307-0.187-0.389
	C198.667,55.823,198.513,55.764,198.194,55.764 M42.632,66.8l2.156-7.401l2.536,7.401H42.632z M10.651,72.175
	c-1.39,0-2.297-0.214-2.297-1.291v-13.34c0-0.868,0.777-1.076,2.347-1.076c1.471,0,2.516,0.207,2.516,1.019v13.537
	C13.217,71.985,12.353,72.175,10.651,72.175 M197.931,56.608v-0.513l0.222-0.023c0.262,0,0.383,0.107,0.383,0.278
	c0,0.183-0.197,0.257-0.414,0.257H197.931z M198.237,58.116h-0.028c-0.792,0-1.389-0.629-1.389-1.426
	c0-0.792,0.597-1.432,1.374-1.432c0.784,0,1.356,0.64,1.356,1.442C199.55,57.477,198.992,58.116,198.237,58.116 M161.146,44.122
	v-0.51l0.228-0.018c0.262,0,0.385,0.107,0.385,0.263c0,0.19-0.188,0.264-0.417,0.264H161.146z M161.448,45.63h-0.015
	c-0.794,0-1.383-0.63-1.383-1.433c0-0.786,0.59-1.432,1.357-1.432c0.787,0,1.374,0.646,1.374,1.441
	C162.78,44.996,162.2,45.63,161.448,45.63 M97.367,41.141c-21.09,0-40.071-7.791-40.071-18.298
	c0-10.498,18.999-18.298,40.071-18.298c21.073,0,40.057,7.8,40.057,18.298C137.424,33.351,118.44,41.141,97.367,41.141 M97.213,0
	C61.286,0,31.447,9.97,31.447,23.035c0,13.03,29.838,23.033,65.765,23.033c35.919,0,65.764-10.003,65.764-23.043
	C162.977,9.977,133.132,0,97.213,0"/>
</svg>
